# xmcd CD database file
#
# Track frame offsets:
#	150
#	27343
#	52638
#	74496
#	106706
#	127976
#	150132
#	174980
#	203499
#	229510
#	254451
#	278282
#	296797
#
# Disc length: 4238 seconds
#
# Revision: 0
# Processed by: cddbd v1.5.2PL0 Copyright (c) Steve Scherf et al.
# Submitted via: CDex 1.70beta2
#
DISCID=9b108c0d
DTITLE=Horace Silver - Peace
DYEAR=1900
DGENRE=Jazz
TTITLE0=peace
TTITLE1=mellow d
TTITLE2=the baghdad blues
TTITLE3=melancholy mood
TTITLE4=how did it happen
TTITLE5=break city
TTITLE6=you happened my way
TTITLE7=sister sadie
TTITLE8=juicy lucy
TTITLE9=sweet stuff
TTITLE10=swingin´ the samba
TTITLE11=the st. vitus dance
TTITLE12=blowin´ the blues away
EXTD=
EXTT0=
EXTT1=
EXTT2=
EXTT3=
EXTT4=
EXTT5=
EXTT6=
EXTT7=
EXTT8=
EXTT9=
EXTT10=
EXTT11=
EXTT12=
PLAYORDER=
